<svg width="136" height="133" viewBox="0 0 136 133" fill="none" xmlns="http://www.w3.org/2000/svg">
<path fill-rule="evenodd" clip-rule="evenodd" d="M13 0C5.8203 0 0 5.8203 0 13V50.5033C0 57.683 5.8203 63.5033 13 63.5033H50.5033C57.683 63.5033 63.5033 57.683 63.5033 50.5033V13C63.5033 5.8203 57.683 0 50.5033 0H13ZM85.4688 0C78.289 0 72.4688 5.8203 72.4688 13V50.5033C72.4688 57.683 78.289 63.5033 85.4688 63.5033H122.972C130.152 63.5033 135.972 57.683 135.972 50.5033V13C135.972 5.8203 130.152 0 122.972 0H85.4688ZM0 81.7332C0 74.5535 5.8203 68.7332 13 68.7332H50.5033C57.683 68.7332 63.5033 74.5535 63.5033 81.7332V119.236C63.5033 126.416 57.683 132.236 50.5033 132.236H13C5.8203 132.236 0 126.416 0 119.236V81.7332ZM85.4688 68.7332C78.289 68.7332 72.4688 74.5535 72.4688 81.7332V119.236C72.4688 126.416 78.289 132.236 85.4688 132.236H122.972C130.152 132.236 135.972 126.416 135.972 119.236V81.7332C135.972 74.5535 130.152 68.7332 122.972 68.7332H85.4688Z" fill="#020202"/>
</svg>
