<svg width="247" height="132" viewBox="0 0 247 132" fill="none" xmlns="http://www.w3.org/2000/svg">
<path fill-rule="evenodd" clip-rule="evenodd" d="M77 13C77 5.8203 82.8203 0 90 0H161C168.18 0 174 5.8203 174 13V119C174 126.18 168.18 132 161 132H90C82.8203 132 77 126.18 77 119V13ZM182 77C182 69.8203 187.82 64 195 64H234C241.18 64 247 69.8203 247 77V119C247 126.18 241.18 132 234 132H195C187.82 132 182 126.18 182 119V77ZM13 45C5.8203 45 0 50.8203 0 58V119C0 126.18 5.8203 132 13 132H56C63.1797 132 69 126.18 69 119V58C69 50.8203 63.1797 45 56 45H13Z" fill="#020202"/>
</svg>
